<mxfile host="app.diagrams.net" agent="Mozilla/5.0 (Macintosh; Intel Mac OS X 10_15_7) AppleWebKit/537.36 (KHTML, like Gecko) Chrome/139.0.0.0 Safari/537.36" version="28.2.0">
  <diagram name="Page-1" id="wkkrfAakZS2gCEsQOzNK">
    <mxGraphModel dx="1234" dy="731" grid="1" gridSize="10" guides="1" tooltips="1" connect="1" arrows="1" fold="1" page="1" pageScale="1" pageWidth="850" pageHeight="1100" math="0" shadow="0">
      <root>
        <mxCell id="0" />
        <mxCell id="1" parent="0" />
        <mxCell id="1lTGerjlC5rO6-euRAGv-27" value="" style="rounded=0;whiteSpace=wrap;html=1;" vertex="1" parent="1">
          <mxGeometry x="120" y="20" width="750" height="1000" as="geometry" />
        </mxCell>
        <mxCell id="3ywKKGpvwJczeCODJA8Q-24" value="" style="rounded=1;whiteSpace=wrap;html=1;" parent="1" vertex="1">
          <mxGeometry x="150" y="220" width="690" height="640" as="geometry" />
        </mxCell>
        <mxCell id="3ywKKGpvwJczeCODJA8Q-26" value="" style="rounded=1;whiteSpace=wrap;html=1;" parent="1" vertex="1">
          <mxGeometry x="355" y="230" width="345" height="610" as="geometry" />
        </mxCell>
        <mxCell id="3ywKKGpvwJczeCODJA8Q-23" value="" style="rounded=1;whiteSpace=wrap;html=1;" parent="1" vertex="1">
          <mxGeometry x="150" y="40" width="690" height="160" as="geometry" />
        </mxCell>
        <mxCell id="3ywKKGpvwJczeCODJA8Q-13" value="" style="rounded=1;whiteSpace=wrap;html=1;" parent="1" vertex="1">
          <mxGeometry x="620" y="50" width="190" height="140" as="geometry" />
        </mxCell>
        <mxCell id="3ywKKGpvwJczeCODJA8Q-11" value="" style="rounded=1;whiteSpace=wrap;html=1;" parent="1" vertex="1">
          <mxGeometry x="355" y="50" width="190" height="140" as="geometry" />
        </mxCell>
        <mxCell id="1lTGerjlC5rO6-euRAGv-2" style="edgeStyle=orthogonalEdgeStyle;rounded=0;orthogonalLoop=1;jettySize=auto;html=1;exitX=0.5;exitY=1;exitDx=0;exitDy=0;entryX=0.5;entryY=0;entryDx=0;entryDy=0;" edge="1" parent="1" source="3ywKKGpvwJczeCODJA8Q-1" target="3ywKKGpvwJczeCODJA8Q-2">
          <mxGeometry relative="1" as="geometry" />
        </mxCell>
        <mxCell id="3ywKKGpvwJczeCODJA8Q-1" value="Get all instruments available for SPOT and PERP using Kaiko Reference Data endpoint" style="rounded=1;whiteSpace=wrap;html=1;" parent="1" vertex="1">
          <mxGeometry x="382.5" y="250" width="290" height="50" as="geometry" />
        </mxCell>
        <mxCell id="1lTGerjlC5rO6-euRAGv-3" style="edgeStyle=orthogonalEdgeStyle;rounded=0;orthogonalLoop=1;jettySize=auto;html=1;exitX=0.5;exitY=1;exitDx=0;exitDy=0;entryX=0.5;entryY=0;entryDx=0;entryDy=0;" edge="1" parent="1" source="3ywKKGpvwJczeCODJA8Q-2" target="1lTGerjlC5rO6-euRAGv-1">
          <mxGeometry relative="1" as="geometry" />
        </mxCell>
        <mxCell id="3ywKKGpvwJczeCODJA8Q-2" value="Use OHLCV endpoint to iterate all available instruments (~400k) to check if they have any trades for the past 10 days" style="rounded=1;whiteSpace=wrap;html=1;" parent="1" vertex="1">
          <mxGeometry x="382.5" y="320" width="290" height="62.5" as="geometry" />
        </mxCell>
        <mxCell id="3ywKKGpvwJczeCODJA8Q-20" style="edgeStyle=orthogonalEdgeStyle;rounded=0;orthogonalLoop=1;jettySize=auto;html=1;exitX=1;exitY=0.5;exitDx=0;exitDy=0;entryX=0;entryY=0.5;entryDx=0;entryDy=0;" parent="1" source="3ywKKGpvwJczeCODJA8Q-6" target="3ywKKGpvwJczeCODJA8Q-15" edge="1">
          <mxGeometry relative="1" as="geometry" />
        </mxCell>
        <mxCell id="3ywKKGpvwJczeCODJA8Q-6" value="Check if an object exist" style="rounded=1;whiteSpace=wrap;html=1;" parent="1" vertex="1">
          <mxGeometry x="370" y="140" width="160" height="30" as="geometry" />
        </mxCell>
        <mxCell id="3ywKKGpvwJczeCODJA8Q-8" value="1. Preparation" style="rounded=1;whiteSpace=wrap;html=1;" parent="1" vertex="1">
          <mxGeometry x="170" y="60" width="120" height="30" as="geometry" />
        </mxCell>
        <mxCell id="3ywKKGpvwJczeCODJA8Q-9" value="AWS Lambda" style="rounded=1;whiteSpace=wrap;html=1;" parent="1" vertex="1">
          <mxGeometry x="390" y="60" width="120" height="30" as="geometry" />
        </mxCell>
        <mxCell id="3ywKKGpvwJczeCODJA8Q-10" value="AWS API Gateway" style="rounded=1;whiteSpace=wrap;html=1;" parent="1" vertex="1">
          <mxGeometry x="650" y="60" width="120" height="30" as="geometry" />
        </mxCell>
        <mxCell id="3ywKKGpvwJczeCODJA8Q-12" value="" style="shape=flexArrow;endArrow=classic;html=1;rounded=0;entryX=0.5;entryY=0;entryDx=0;entryDy=0;exitX=0.5;exitY=1;exitDx=0;exitDy=0;" parent="1" source="3ywKKGpvwJczeCODJA8Q-9" target="3ywKKGpvwJczeCODJA8Q-6" edge="1">
          <mxGeometry width="50" height="50" relative="1" as="geometry">
            <mxPoint x="450" y="100" as="sourcePoint" />
            <mxPoint x="500" y="200" as="targetPoint" />
          </mxGeometry>
        </mxCell>
        <mxCell id="1lTGerjlC5rO6-euRAGv-12" style="edgeStyle=orthogonalEdgeStyle;rounded=0;orthogonalLoop=1;jettySize=auto;html=1;exitX=1;exitY=0.5;exitDx=0;exitDy=0;entryX=1;entryY=0.5;entryDx=0;entryDy=0;" edge="1" parent="1" source="3ywKKGpvwJczeCODJA8Q-15" target="1lTGerjlC5rO6-euRAGv-10">
          <mxGeometry relative="1" as="geometry" />
        </mxCell>
        <mxCell id="3ywKKGpvwJczeCODJA8Q-15" value="API 1" style="rounded=1;whiteSpace=wrap;html=1;" parent="1" vertex="1">
          <mxGeometry x="635" y="140" width="160" height="30" as="geometry" />
        </mxCell>
        <mxCell id="3ywKKGpvwJczeCODJA8Q-17" value="" style="shape=flexArrow;endArrow=classic;html=1;rounded=0;entryX=0.5;entryY=0;entryDx=0;entryDy=0;" parent="1" target="3ywKKGpvwJczeCODJA8Q-15" edge="1">
          <mxGeometry width="50" height="50" relative="1" as="geometry">
            <mxPoint x="715" y="90" as="sourcePoint" />
            <mxPoint x="765" y="200" as="targetPoint" />
          </mxGeometry>
        </mxCell>
        <mxCell id="3ywKKGpvwJczeCODJA8Q-31" value="2. Process &amp;amp; Check" style="rounded=1;whiteSpace=wrap;html=1;" parent="1" vertex="1">
          <mxGeometry x="190" y="250" width="120" height="30" as="geometry" />
        </mxCell>
        <mxCell id="1lTGerjlC5rO6-euRAGv-5" style="edgeStyle=orthogonalEdgeStyle;rounded=0;orthogonalLoop=1;jettySize=auto;html=1;exitX=0.5;exitY=1;exitDx=0;exitDy=0;entryX=0.5;entryY=0;entryDx=0;entryDy=0;" edge="1" parent="1" source="1lTGerjlC5rO6-euRAGv-1" target="1lTGerjlC5rO6-euRAGv-4">
          <mxGeometry relative="1" as="geometry" />
        </mxCell>
        <mxCell id="1lTGerjlC5rO6-euRAGv-1" value="Filter for those that have trades for the past 10 days" style="rounded=1;whiteSpace=wrap;html=1;" vertex="1" parent="1">
          <mxGeometry x="382.5" y="400" width="290" height="42.5" as="geometry" />
        </mxCell>
        <mxCell id="1lTGerjlC5rO6-euRAGv-9" style="edgeStyle=orthogonalEdgeStyle;rounded=0;orthogonalLoop=1;jettySize=auto;html=1;exitX=0.5;exitY=1;exitDx=0;exitDy=0;entryX=0.5;entryY=0;entryDx=0;entryDy=0;" edge="1" parent="1" source="1lTGerjlC5rO6-euRAGv-4" target="1lTGerjlC5rO6-euRAGv-6">
          <mxGeometry relative="1" as="geometry" />
        </mxCell>
        <mxCell id="1lTGerjlC5rO6-euRAGv-4" value="Generate AWS S3 object keys for these active instruments" style="rounded=1;whiteSpace=wrap;html=1;" vertex="1" parent="1">
          <mxGeometry x="382.5" y="460" width="290" height="42.5" as="geometry" />
        </mxCell>
        <mxCell id="1lTGerjlC5rO6-euRAGv-14" style="edgeStyle=orthogonalEdgeStyle;rounded=0;orthogonalLoop=1;jettySize=auto;html=1;exitX=0.5;exitY=1;exitDx=0;exitDy=0;" edge="1" parent="1" source="1lTGerjlC5rO6-euRAGv-6" target="1lTGerjlC5rO6-euRAGv-10">
          <mxGeometry relative="1" as="geometry" />
        </mxCell>
        <mxCell id="1lTGerjlC5rO6-euRAGv-6" value="Generate AWS S3 object keys for these active instruments" style="rounded=1;whiteSpace=wrap;html=1;" vertex="1" parent="1">
          <mxGeometry x="382.5" y="520" width="290" height="42.5" as="geometry" />
        </mxCell>
        <mxCell id="1lTGerjlC5rO6-euRAGv-15" style="edgeStyle=orthogonalEdgeStyle;rounded=0;orthogonalLoop=1;jettySize=auto;html=1;exitX=0.5;exitY=1;exitDx=0;exitDy=0;" edge="1" parent="1" source="1lTGerjlC5rO6-euRAGv-10" target="1lTGerjlC5rO6-euRAGv-13">
          <mxGeometry relative="1" as="geometry" />
        </mxCell>
        <mxCell id="1lTGerjlC5rO6-euRAGv-10" value="Use API to check if these objects exist" style="rounded=1;whiteSpace=wrap;html=1;" vertex="1" parent="1">
          <mxGeometry x="382.5" y="580" width="290" height="42.5" as="geometry" />
        </mxCell>
        <mxCell id="1lTGerjlC5rO6-euRAGv-17" style="edgeStyle=orthogonalEdgeStyle;rounded=0;orthogonalLoop=1;jettySize=auto;html=1;exitX=0.5;exitY=1;exitDx=0;exitDy=0;" edge="1" parent="1" source="1lTGerjlC5rO6-euRAGv-13" target="1lTGerjlC5rO6-euRAGv-16">
          <mxGeometry relative="1" as="geometry" />
        </mxCell>
        <mxCell id="1lTGerjlC5rO6-euRAGv-13" value="Save all the results" style="rounded=1;whiteSpace=wrap;html=1;" vertex="1" parent="1">
          <mxGeometry x="382.5" y="640" width="290" height="42.5" as="geometry" />
        </mxCell>
        <mxCell id="1lTGerjlC5rO6-euRAGv-19" style="edgeStyle=orthogonalEdgeStyle;rounded=0;orthogonalLoop=1;jettySize=auto;html=1;exitX=0.5;exitY=1;exitDx=0;exitDy=0;entryX=0.5;entryY=0;entryDx=0;entryDy=0;" edge="1" parent="1" source="1lTGerjlC5rO6-euRAGv-16" target="1lTGerjlC5rO6-euRAGv-18">
          <mxGeometry relative="1" as="geometry" />
        </mxCell>
        <mxCell id="1lTGerjlC5rO6-euRAGv-16" value="Filter for files that don&#39;t exist, check again their OHLCV result for the past day" style="rounded=1;whiteSpace=wrap;html=1;" vertex="1" parent="1">
          <mxGeometry x="382.5" y="700" width="290" height="42.5" as="geometry" />
        </mxCell>
        <mxCell id="1lTGerjlC5rO6-euRAGv-18" value="Assuming if an instrument has a trade, the CSV file of all products should exist. &lt;br&gt;Filter for real failed CSV files" style="rounded=1;whiteSpace=wrap;html=1;" vertex="1" parent="1">
          <mxGeometry x="382.5" y="760" width="290" height="60" as="geometry" />
        </mxCell>
        <mxCell id="1lTGerjlC5rO6-euRAGv-23" value="" style="whiteSpace=wrap;html=1;rounded=1;" vertex="1" parent="1">
          <mxGeometry x="150" y="890" width="690" height="100" as="geometry" />
        </mxCell>
        <mxCell id="1lTGerjlC5rO6-euRAGv-20" value="Send alert to slack channel for general report and failed CSV file information" style="rounded=1;whiteSpace=wrap;html=1;" vertex="1" parent="1">
          <mxGeometry x="382.5" y="910" width="290" height="60" as="geometry" />
        </mxCell>
        <mxCell id="1lTGerjlC5rO6-euRAGv-25" value="3. Send alert" style="rounded=1;whiteSpace=wrap;html=1;" vertex="1" parent="1">
          <mxGeometry x="180" y="925" width="120" height="30" as="geometry" />
        </mxCell>
        <mxCell id="1lTGerjlC5rO6-euRAGv-21" style="edgeStyle=orthogonalEdgeStyle;rounded=0;orthogonalLoop=1;jettySize=auto;html=1;exitX=0.5;exitY=1;exitDx=0;exitDy=0;" edge="1" parent="1" source="1lTGerjlC5rO6-euRAGv-18" target="1lTGerjlC5rO6-euRAGv-20">
          <mxGeometry relative="1" as="geometry" />
        </mxCell>
      </root>
    </mxGraphModel>
  </diagram>
</mxfile>
